<?xml version="1.0" standalone="no"?>
<!DOCTYPE svg PUBLIC "-//W3C//DTD SVG 20010904//EN"
 "http://www.w3.org/TR/2001/REC-SVG-20010904/DTD/svg10.dtd">
<svg version="1.0" xmlns="http://www.w3.org/2000/svg"
 width="1920.000000pt" height="1080.000000pt" viewBox="0 0 1920.000000 1080.000000"
 preserveAspectRatio="xMidYMid meet">
<metadata>
Created by potrace 1.16, written by Peter Selinger 2001-2019
</metadata>
<g transform="translate(0.000000,1080.000000) scale(0.100000,-0.100000)"
fill="#000000" stroke="none">
<path d="M0 5400 l0 -5400 9600 0 9600 0 0 5400 0 5400 -9600 0 -9600 0 0
-5400z m5830 380 l0 -90 -95 0 -95 0 0 90 0 90 95 0 95 0 0 -90z m4080 0 l0
-90 -95 0 -95 0 0 90 0 90 95 0 95 0 0 -90z m1950 0 l0 -90 -90 0 -90 0 0 90
0 90 90 0 90 0 0 -90z m-8365 70 c50 -11 109 -72 124 -126 27 -97 3 -198 -60
-247 -19 -15 -29 -27 -22 -27 21 0 85 -63 99 -97 20 -47 17 -160 -5 -208 -26
-57 -79 -101 -141 -114 -28 -6 -136 -11 -240 -11 l-190 0 0 420 0 420 198 0
c108 0 215 -5 237 -10z m1727 -206 l3 -216 80 111 79 111 83 0 c46 0 83 -3 83
-7 0 -5 -34 -52 -75 -106 -41 -54 -75 -102 -75 -107 0 -5 36 -94 80 -199 44
-105 80 -196 80 -202 0 -6 -36 -9 -97 -7 l-96 3 -46 136 -46 137 -27 -39 c-26
-37 -28 -46 -28 -139 l0 -100 -90 0 -90 0 0 420 0 420 90 0 90 0 2 -216z
m2722 -192 c64 -224 116 -413 116 -420 0 -10 -24 -12 -97 -10 l-97 3 -20 83
-20 82 -112 0 -113 0 -10 -37 c-6 -21 -11 -42 -11 -48 0 -5 -5 -27 -11 -47
l-10 -38 -90 0 c-81 0 -90 2 -85 18 3 9 49 161 101 337 53 176 108 357 121
403 l25 82 98 0 98 0 117 -408z m1636 -12 l0 -420 -95 0 -95 0 0 420 0 420 95
0 95 0 0 -420z m4837 78 c-5 -370 -8 -395 -58 -453 -37 -41 -80 -55 -174 -55
-116 0 -115 -1 -115 91 l0 79 56 -2 c48 -2 59 1 75 21 18 22 19 44 19 342 l0
319 101 0 101 0 -5 -342z m-2947 227 l0 -95 55 0 55 0 0 -75 0 -75 -55 0 -55
0 0 -160 c0 -180 0 -180 79 -180 l41 0 0 -69 c0 -81 0 -81 -108 -81 -91 0
-136 19 -167 71 -18 30 -20 56 -23 227 l-4 192 -34 0 -34 0 0 75 0 75 35 0 35
0 0 95 0 95 90 0 90 0 0 -95z m-4340 -55 l0 -60 -30 0 c-17 0 -39 -9 -50 -20
-19 -19 -19 -20 -1 -52 59 -101 21 -220 -84 -269 -29 -14 -64 -19 -127 -19
-79 0 -88 -2 -99 -22 -10 -18 -8 -24 7 -35 10 -7 29 -13 43 -13 74 -1 224 -21
248 -34 69 -35 99 -109 82 -199 -17 -90 -72 -135 -195 -158 -64 -12 -196 -6
-258 12 -119 34 -143 179 -40 237 18 10 17 12 -9 40 -53 56 -44 129 24 186
l31 26 -31 35 c-38 43 -45 69 -39 144 8 109 80 164 217 165 42 1 91 -3 109 -7
30 -8 33 -7 38 22 4 17 17 42 30 56 19 21 32 25 79 25 l55 0 0 -60z m-3003
-41 c27 -7 60 -26 83 -48 47 -45 49 -55 52 -353 l3 -228 -82 0 -83 0 0 37 0
37 -32 -31 c-41 -40 -76 -53 -140 -53 -123 0 -186 90 -158 227 21 100 100 154
253 170 57 6 57 6 57 39 0 60 -15 84 -54 84 -39 0 -53 -14 -62 -59 l-7 -32
-66 6 c-117 11 -112 8 -96 62 35 116 182 179 332 142z m690 -8 c74 -34 78 -48
81 -353 l3 -268 -90 0 -91 0 0 214 c0 131 -4 225 -11 245 -11 30 -14 32 -53
29 -37 -3 -42 -6 -53 -38 -8 -22 -12 -109 -12 -242 l-1 -208 -90 0 -90 0 0
315 0 315 85 0 85 0 0 -36 0 -36 26 31 c43 52 136 65 211 32z m1553 3 c22 -9
50 -30 63 -48 21 -30 22 -40 25 -303 l3 -273 -90 0 -91 0 0 219 c0 225 -6 266
-37 273 -26 6 -70 -11 -79 -30 -4 -9 -10 -117 -12 -239 l-4 -223 -89 0 -89 0
0 315 0 315 85 0 85 0 0 -37 0 -37 16 23 c22 30 89 61 136 61 21 0 56 -7 78
-16z m4045 -18 c24 -14 53 -41 65 -60 20 -33 49 -141 39 -149 -2 -3 -41 -8
-86 -11 -80 -7 -83 -7 -83 14 0 35 -27 88 -49 95 -56 17 -91 -53 -91 -181 0
-84 17 -149 43 -166 39 -25 84 6 94 66 6 40 7 41 113 29 l62 -6 -6 -44 c-9
-67 -47 -134 -94 -167 -35 -25 -53 -30 -122 -34 -102 -6 -155 13 -205 71 -49
57 -65 119 -65 248 0 139 18 198 80 260 55 55 99 70 193 64 50 -3 80 -11 112
-29z m570 20 c52 -16 101 -56 117 -96 6 -14 13 -139 17 -278 l6 -252 -87 0
-88 0 0 37 0 37 -32 -31 c-47 -44 -70 -53 -135 -53 -108 0 -163 58 -163 171 0
131 69 198 229 221 l81 12 0 39 c0 53 -15 77 -49 77 -32 0 -56 -23 -66 -63
l-7 -28 -77 7 c-42 4 -80 10 -85 15 -18 16 15 93 55 131 65 62 182 84 284 54z
m1341 -1 c59 -17 104 -61 135 -129 30 -69 38 -227 15 -316 -33 -129 -91 -180
-212 -188 -97 -6 -157 11 -205 59 -57 57 -74 120 -74 269 0 114 3 130 27 181
54 117 176 165 314 124z m684 -1 c22 -9 50 -30 63 -48 21 -30 22 -40 25 -303
l3 -273 -90 0 -91 0 0 219 c0 225 -6 266 -37 273 -26 6 -70 -11 -79 -30 -4 -9
-10 -117 -12 -239 l-4 -223 -89 0 -89 0 0 315 0 315 85 0 85 0 0 -37 0 -37 16
23 c22 30 89 61 136 61 21 0 56 -7 78 -16z m1916 1 c53 -16 96 -53 113 -98 6
-16 11 -107 12 -210 0 -100 3 -212 8 -249 l7 -68 -88 0 -88 0 0 37 0 37 -32
-31 c-47 -44 -70 -53 -135 -53 -68 0 -112 23 -144 72 -16 27 -19 46 -17 109 5
133 65 188 229 212 l79 11 0 39 c0 54 -15 77 -50 77 -35 0 -59 -22 -67 -62
l-6 -29 -71 6 c-39 4 -77 8 -83 10 -30 10 1 98 51 144 58 54 185 75 282 46z
m1138 -19 c71 -41 80 -67 83 -236 2 -80 4 -196 6 -257 l2 -113 -81 0 c-86 0
-94 4 -94 52 0 19 -1 19 -20 -4 -28 -36 -80 -58 -139 -58 -102 0 -158 47 -168
143 -15 150 70 234 261 254 l58 6 -6 45 c-7 56 -20 72 -57 72 -30 0 -59 -31
-59 -62 0 -26 -12 -28 -95 -21 -51 4 -79 11 -82 20 -3 7 7 38 22 68 43 88 122
127 251 121 56 -2 82 -9 118 -30z m-10244 -291 l0 -315 -90 0 -90 0 0 315 0
315 90 0 90 0 0 -315z m2490 279 l0 -37 20 25 c28 36 72 51 133 46 69 -6 110
-36 145 -108 26 -52 27 -62 27 -205 0 -145 -1 -152 -28 -208 -36 -73 -86 -109
-160 -114 -38 -3 -62 1 -89 15 l-38 20 0 -119 0 -119 -90 0 -90 0 0 420 0 420
85 0 85 0 0 -36z m630 5 l0 -31 35 31 c31 27 43 31 93 31 95 0 155 -53 187
-164 25 -86 17 -271 -14 -341 -52 -118 -157 -165 -254 -116 l-37 19 0 -119 0
-119 -90 0 -90 0 0 420 0 420 85 0 85 0 0 -31z m960 -284 l0 -315 -90 0 -90 0
0 315 0 315 90 0 90 0 0 -315z m1960 0 l0 -315 -90 0 -90 0 0 315 0 315 90 0
90 0 0 -315z m3477 143 l40 -173 32 135 c17 74 36 152 42 173 l10 37 75 0 76
0 -7 -27 c-3 -16 -41 -156 -84 -313 l-77 -285 -75 -3 -74 -3 -85 302 c-47 166
-86 308 -88 315 -3 11 15 14 85 14 l89 0 41 -172z m-1597 -138 l0 -70 -125 0
-125 0 0 70 0 70 125 0 125 0 0 -70z"/>
<path d="M3250 5625 l0 -97 71 4 c84 5 109 25 109 89 0 63 -32 90 -113 96
l-67 6 0 -98z"/>
<path d="M3250 5275 l0 -105 55 0 c78 0 122 21 141 67 13 30 14 44 5 75 -15
50 -51 68 -136 68 l-65 0 0 -105z"/>
<path d="M7707 5630 c-7 -16 -67 -273 -67 -284 0 -3 34 -6 75 -6 l75 0 -7 28
c-54 216 -71 275 -76 262z"/>
<path d="M6814 5545 c-46 -31 -36 -159 12 -171 41 -10 59 16 59 85 0 44 -5 64
-19 80 -23 25 -25 25 -52 6z"/>
<path d="M6741 5025 c-29 -32 -33 -43 -22 -64 30 -55 212 -55 242 1 8 15 6 25
-6 44 -8 13 -19 24 -23 25 -138 15 -173 14 -191 -6z"/>
<path d="M4010 5292 c-58 -29 -78 -98 -42 -142 14 -18 25 -21 45 -16 38 9 58
46 64 116 5 54 4 60 -13 60 -11 0 -35 -8 -54 -18z"/>
<path d="M10860 5292 c-64 -32 -74 -143 -14 -158 46 -12 84 45 84 126 0 57
-10 62 -70 32z"/>
<path d="M12201 5511 c-26 -26 -34 -87 -29 -220 4 -118 17 -151 63 -151 46 0
59 33 63 151 3 60 1 130 -3 155 -7 47 -33 84 -60 84 -8 0 -24 -9 -34 -19z"/>
<path d="M14805 5296 c-44 -19 -58 -42 -58 -92 0 -58 21 -82 60 -68 36 12 63
66 63 127 0 52 -10 57 -65 33z"/>
<path d="M15899 5294 c-40 -17 -59 -48 -59 -98 0 -34 25 -66 52 -66 37 0 77
78 78 153 0 32 -16 34 -71 11z"/>
<path d="M8349 5511 c-23 -19 -24 -23 -24 -181 0 -150 1 -163 20 -176 29 -21
65 -13 89 19 18 25 21 42 21 160 0 93 -4 139 -14 157 -25 45 -54 52 -92 21z"/>
<path d="M8971 5504 c-19 -24 -21 -40 -21 -175 0 -136 2 -151 20 -169 25 -25
55 -25 79 -1 27 27 33 69 29 209 -2 101 -6 123 -22 141 -26 29 -60 26 -85 -5z"/>
</g>
</svg>
