<?xml version="1.0" standalone="no"?>
<!DOCTYPE svg PUBLIC "-//W3C//DTD SVG 20010904//EN"
 "http://www.w3.org/TR/2001/REC-SVG-20010904/DTD/svg10.dtd">
<svg version="1.0" xmlns="http://www.w3.org/2000/svg"
 width="100px" viewBox="0 0 1920.000000 1080.000000"
 preserveAspectRatio="xMidYMid meet">
<metadata>
Created by potrace 1.16, written by Peter Selinger 2001-2019
</metadata>
<g transform="translate(0.000000,1080.000000) scale(0.100000,-0.100000)"
fill="#000000" stroke="none">
<path d="M0 5400 l0 -5400 9600 0 9600 0 0 5400 0 5400 -9600 0 -9600 0 0
-5400z m2865 451 c81 -35 143 -126 165 -241 15 -79 12 -285 -5 -358 -42 -176
-136 -249 -310 -240 -66 3 -91 9 -129 32 -96 56 -144 165 -153 351 -12 229 46
392 161 452 67 35 194 37 271 4z m6212 -7 c98 -47 145 -134 165 -305 9 -75 9
-123 0 -198 -27 -227 -105 -320 -277 -329 -209 -11 -308 99 -330 369 -13 160
22 325 86 402 77 93 233 120 356 61z m4609 1 c29 -12 63 -38 77 -57 26 -33 61
-107 55 -113 -2 -2 -37 -17 -78 -33 -81 -33 -78 -34 -111 26 -35 62 -124 62
-158 1 -13 -24 -13 -29 3 -54 10 -15 43 -38 74 -52 208 -92 230 -107 263 -178
30 -64 26 -169 -9 -236 -30 -59 -95 -111 -160 -129 -48 -13 -167 -13 -214 0
-77 22 -162 115 -183 201 -6 25 -4 26 76 48 83 23 98 21 99 -16 0 -6 15 -28
34 -47 28 -30 40 -36 74 -36 53 0 87 16 101 47 27 58 -1 89 -129 143 -128 54
-157 74 -194 134 -25 40 -30 58 -30 114 0 37 6 84 13 106 16 45 72 111 114
133 73 37 197 37 283 -2z m-9366 -65 l0 -90 -95 0 -95 0 0 90 0 90 95 0 95 0
0 -90z m7320 0 l0 -90 -90 0 -90 0 0 90 0 90 90 0 90 0 0 -90z m-7650 -340 l0
-420 -95 0 -95 0 0 420 0 420 95 0 95 0 0 -420z m2490 345 l0 -75 -155 0 -155
0 0 -105 0 -105 120 0 120 0 0 -75 0 -75 -120 0 -120 0 0 -165 0 -165 -95 0
-95 0 0 420 0 420 250 0 250 0 0 -75z m1760 -345 l0 -420 -85 0 -85 0 0 36 0
35 -33 -34 c-51 -55 -132 -61 -204 -17 -60 36 -103 157 -103 289 0 142 36 243
103 292 34 24 49 29 101 29 43 0 71 -6 94 -20 l32 -20 0 125 0 125 90 0 90 0
0 -420z m2050 0 l0 -420 -85 0 -85 0 0 36 0 36 -25 -30 c-49 -58 -136 -68
-209 -23 -134 83 -137 482 -4 581 48 36 158 41 199 11 l29 -22 0 126 0 125 90
0 90 0 0 -420z m4890 305 l0 -95 55 0 55 0 0 -75 0 -75 -55 0 -55 0 0 -148 c0
-177 6 -192 76 -192 l44 0 0 -70 c0 -66 -1 -70 -25 -76 -14 -3 -59 -4 -100 -2
-83 4 -116 21 -149 78 -17 29 -20 59 -24 221 l-5 189 -28 0 -29 0 0 75 0 75
30 0 30 0 0 95 0 95 90 0 90 0 0 -95z m-2230 -55 l0 -60 -33 0 c-21 0 -41 -8
-52 -20 -17 -18 -16 -21 4 -63 28 -57 27 -121 -1 -177 -18 -35 -35 -51 -78
-73 -48 -24 -65 -28 -132 -26 -82 2 -108 -8 -108 -42 0 -23 12 -26 159 -39
139 -12 177 -28 209 -90 58 -116 -1 -244 -132 -282 -66 -20 -252 -16 -308 5
-68 26 -98 66 -98 129 0 46 4 55 38 87 l37 36 -27 27 c-49 48 -33 142 32 188
l31 22 -27 21 c-68 53 -74 188 -11 255 42 45 96 65 177 66 41 1 92 -3 113 -7
35 -8 37 -7 37 18 0 16 12 38 29 56 26 25 37 29 85 29 l56 0 0 -60z m-9389
-40 c55 -15 88 -57 99 -126 6 -32 10 -159 10 -281 l0 -223 -95 0 -95 0 0 233
c0 168 -3 236 -12 245 -17 17 -73 15 -89 -5 -11 -12 -15 -69 -17 -245 l-3
-228 -90 0 -89 0 0 315 0 315 85 0 85 0 0 -32 0 -32 29 28 c44 43 110 56 182
36z m1306 -9 c77 -35 78 -39 81 -348 l3 -273 -90 0 -91 0 0 228 c0 248 -3 265
-54 265 -14 0 -36 -9 -46 -18 -19 -17 -20 -32 -20 -247 l0 -228 -95 0 -95 0 0
315 0 315 90 0 90 0 0 -27 c0 -24 1 -25 18 -10 52 47 140 59 209 28z m563 -6
c91 -46 140 -140 140 -271 l0 -64 -160 0 -160 0 1 -37 c1 -92 44 -139 107
-117 20 7 31 21 42 53 l15 43 73 -5 c41 -3 76 -8 79 -11 12 -12 -10 -78 -40
-122 -47 -70 -91 -89 -203 -89 -83 0 -94 2 -140 30 -91 57 -138 204 -114 358
26 174 120 263 265 253 34 -2 76 -11 95 -21z m1424 14 c54 -13 110 -59 136
-108 28 -57 44 -163 37 -260 -5 -67 -13 -99 -37 -148 -49 -98 -109 -129 -242
-121 -101 6 -149 36 -193 123 -29 56 -30 64 -30 184 0 152 13 205 67 266 59
67 157 91 262 64z m665 -26 c34 -21 53 -44 76 -88 28 -54 30 -68 34 -181 4
-143 -11 -208 -60 -268 -46 -55 -98 -76 -189 -76 -115 0 -187 43 -225 133 -25
60 -36 182 -25 270 22 179 105 252 274 242 54 -3 79 -10 115 -32z m3258 14
c89 -47 129 -120 140 -259 l6 -78 -163 0 -162 0 4 -60 c5 -71 26 -100 73 -100
36 0 59 21 76 68 10 29 15 32 52 32 23 0 59 -3 80 -6 36 -7 38 -8 31 -38 -16
-76 -69 -143 -136 -170 -56 -24 -171 -21 -225 5 -87 42 -131 126 -140 269 -14
226 94 368 272 356 34 -2 75 -11 92 -19z m1432 -4 c57 -42 61 -64 61 -350 l0
-263 -90 0 -90 0 0 233 c0 168 -3 236 -12 245 -7 7 -27 12 -44 12 -60 0 -64
-16 -64 -267 l0 -223 -90 0 -90 0 0 315 0 315 85 0 85 0 0 -32 0 -32 21 23
c12 13 36 30 53 37 42 19 141 12 175 -13z m2554 -9 c37 -27 90 -107 84 -128
-3 -7 -109 -45 -129 -46 -5 0 -8 7 -8 15 0 47 -91 85 -120 50 -25 -30 -3 -65
58 -91 31 -14 79 -35 105 -47 83 -36 126 -113 111 -195 -21 -114 -102 -172
-241 -172 -91 0 -145 20 -186 69 -24 29 -54 107 -44 117 5 5 105 24 128 24 12
0 21 -10 25 -25 19 -75 144 -89 144 -16 0 36 -21 53 -95 80 -33 12 -79 33
-102 47 -78 45 -106 155 -60 244 39 78 112 113 220 106 56 -3 77 -9 110 -32z
m944 21 c99 -30 152 -117 168 -277 l7 -68 -166 0 c-133 0 -166 -3 -166 -14 0
-47 15 -108 32 -125 40 -44 112 -15 125 49 5 28 8 30 52 29 25 0 63 -3 83 -7
l37 -7 -18 -51 c-23 -70 -44 -99 -93 -132 -35 -22 -55 -28 -120 -31 -102 -4
-154 14 -208 76 -58 66 -74 128 -68 267 4 89 9 121 28 160 58 121 174 170 307
131z m678 1 c18 -8 41 -26 50 -40 l17 -25 25 29 c40 49 129 64 202 34 75 -30
76 -34 79 -346 l3 -278 -90 0 -91 0 0 226 c0 136 -4 233 -10 245 -13 24 -62
26 -81 2 -11 -12 -15 -70 -17 -245 l-4 -228 -89 0 -89 0 0 234 c0 228 -1 235
-21 250 -27 18 -59 8 -76 -25 -9 -17 -13 -89 -13 -241 l0 -218 -90 0 -90 0 0
315 0 315 85 0 85 0 0 -32 0 -32 28 27 c49 47 121 60 187 33z m-12065 -311 l0
-315 -95 0 -95 0 0 315 0 315 95 0 95 0 0 -315z m5220 258 l1 -58 19 37 c29
54 65 78 116 78 l44 0 0 -89 0 -89 -35 0 c-20 0 -47 -8 -61 -17 -47 -31 -58
-74 -62 -262 l-4 -173 -89 0 -89 0 0 315 0 315 80 0 80 0 0 -57z m1660 -5 l0
-63 21 43 c29 59 62 82 115 82 l44 0 0 -89 0 -89 -35 0 c-20 0 -47 -8 -61 -17
-46 -30 -56 -75 -62 -262 l-5 -173 -88 0 -89 0 0 315 0 315 80 0 80 0 0 -62z
m440 -253 l0 -315 -90 0 -90 0 0 315 0 315 90 0 90 0 0 -315z m2449 156 c19
-88 37 -164 41 -171 4 -6 22 65 41 157 l35 168 83 3 c71 2 83 1 78 -12 -4 -9
-52 -170 -108 -358 -55 -189 -109 -359 -120 -379 -38 -75 -116 -111 -204 -95
l-35 7 0 74 0 74 33 -5 c47 -8 86 11 102 49 13 31 9 49 -76 337 -49 168 -89
306 -89 307 0 2 42 3 93 3 l92 0 34 -159z"/>
<path d="M2699 5706 c-34 -20 -48 -54 -60 -150 -11 -84 -5 -250 11 -306 14
-50 48 -80 87 -80 46 0 78 34 92 99 14 67 14 275 0 341 -18 85 -74 126 -130
96z"/>
<path d="M8915 5710 c-58 -23 -75 -83 -75 -270 0 -203 21 -262 95 -268 80 -7
106 57 106 268 0 76 -5 158 -11 183 -17 67 -69 106 -115 87z"/>
<path d="M7943 5503 c-24 -36 -31 -248 -11 -308 18 -56 58 -70 95 -33 23 24
26 36 31 121 6 122 -4 198 -29 226 -28 30 -65 27 -86 -6z"/>
<path d="M10014 5522 c-23 -15 -35 -55 -41 -136 -12 -166 19 -258 81 -242 42
11 56 56 56 189 0 63 -5 128 -11 146 -15 43 -55 63 -85 43z"/>
<path d="M12640 5552 c-28 -8 -40 -35 -40 -87 0 -56 20 -95 50 -95 34 0 50 28
50 86 0 77 -20 109 -60 96z"/>
<path d="M12547 5022 c-23 -25 -21 -55 4 -78 17 -15 37 -19 105 -19 72 0 86 3
105 22 16 15 20 28 15 47 -8 31 -54 46 -147 46 -51 0 -70 -4 -82 -18z"/>
<path d="M6747 5518 c-28 -22 -37 -66 -37 -187 0 -136 11 -178 48 -188 58 -14
81 37 81 187 1 118 -11 175 -39 190 -24 13 -33 13 -53 -2z"/>
<path d="M7341 5505 c-24 -32 -36 -130 -27 -233 8 -101 22 -127 66 -127 45 0
58 26 66 136 13 187 -41 304 -105 224z"/>
<path d="M10625 5506 c-9 -13 -19 -40 -22 -60 l-6 -36 78 0 78 0 -6 36 c-10
58 -32 84 -72 84 -25 0 -39 -6 -50 -24z"/>
</g>
</svg>
