<?xml version="1.0" standalone="no"?>
<!DOCTYPE svg PUBLIC "-//W3C//DTD SVG 20010904//EN"
 "http://www.w3.org/TR/2001/REC-SVG-20010904/DTD/svg10.dtd">
<svg version="1.0" xmlns="http://www.w3.org/2000/svg"
 width="1920.000000pt" height="1080.000000pt" viewBox="0 0 1920.000000 1080.000000"
 preserveAspectRatio="xMidYMid meet">
<metadata>
Created by potrace 1.16, written by Peter Selinger 2001-2019
</metadata>
<g transform="translate(0.000000,1080.000000) scale(0.100000,-0.100000)"
fill="#000000" stroke="none">
<path d="M0 5400 l0 -5400 9600 0 9600 0 0 5400 0 5400 -9600 0 -9600 0 0
-5400z m11193 459 c65 -17 156 -118 157 -176 0 -6 -35 -25 -77 -42 l-78 -30
-18 35 c-47 92 -177 91 -177 -2 0 -41 22 -57 145 -108 118 -49 158 -76 190
-130 59 -100 39 -236 -45 -317 -64 -63 -124 -82 -238 -77 -128 5 -203 51 -250
151 -39 84 -41 80 51 105 98 27 97 27 97 5 0 -25 34 -74 62 -89 13 -8 42 -13
66 -14 76 0 120 75 75 129 -10 11 -63 39 -118 61 -134 55 -167 78 -199 141
-46 94 -30 226 37 297 66 71 189 94 320 61z m-2023 -79 l0 -90 -90 0 -90 0 0
90 0 90 90 0 90 0 0 -90z m-7110 -255 l0 -335 135 0 135 0 0 -85 0 -85 -230 0
-230 0 0 420 0 420 95 0 95 0 0 -335z m2090 -85 l0 -420 -85 0 -85 0 0 35 0
35 -32 -35 c-56 -61 -150 -60 -219 2 -56 50 -81 134 -82 273 -1 163 39 262
124 306 43 22 141 18 173 -7 l26 -20 0 125 0 126 90 0 90 0 0 -420z m855 401
c49 -22 98 -76 116 -128 19 -55 17 -159 -4 -215 -10 -26 -35 -62 -56 -81 l-37
-33 73 -175 c40 -96 73 -177 73 -181 0 -5 -47 -8 -104 -8 l-104 0 -54 163 -55
162 -41 3 -42 3 0 -165 0 -166 -95 0 -95 0 0 420 0 420 193 0 c164 0 198 -3
232 -19z m10605 -313 c0 -189 -5 -352 -11 -377 -23 -100 -84 -140 -216 -141
-116 0 -113 -2 -113 91 l0 79 55 -3 c93 -4 90 -18 93 358 l3 325 95 0 94 0 0
-332z m-6830 217 l0 -95 55 0 55 0 0 -75 0 -75 -55 0 -55 0 0 -152 c0 -177 5
-188 77 -188 l43 0 0 -69 c0 -54 -4 -70 -16 -75 -31 -12 -165 -6 -192 8 -77
40 -92 94 -92 322 l0 154 -35 0 -35 0 0 75 0 75 35 0 35 0 0 95 0 95 90 0 90
0 0 -95z m3930 0 l0 -95 60 0 60 0 0 -75 0 -75 -61 0 -62 0 5 -157 c6 -178 9
-183 85 -183 l43 0 0 -69 c0 -80 -1 -81 -113 -81 -82 0 -126 17 -158 61 -23
33 -24 42 -27 232 l-4 197 -34 0 -34 0 0 75 0 75 35 0 35 0 0 95 0 95 85 0 85
0 0 -95z m-9945 -99 c51 -16 101 -56 118 -96 5 -14 13 -139 16 -278 l6 -252
-87 0 -88 0 0 37 0 37 -32 -31 c-47 -44 -70 -53 -135 -53 -108 0 -163 58 -163
171 0 131 69 198 229 221 l81 12 0 39 c0 53 -15 77 -49 77 -32 0 -56 -23 -66
-63 l-7 -28 -77 7 c-42 4 -80 10 -85 15 -18 16 15 93 55 131 65 62 182 84 284
54z m682 -5 c77 -35 78 -39 81 -348 l3 -273 -90 0 -91 0 0 228 c0 174 -3 232
-13 246 -19 26 -67 24 -89 -4 -16 -20 -18 -45 -18 -246 l0 -224 -95 0 -95 0 0
315 0 315 90 0 90 0 0 -32 c1 -28 2 -30 11 -15 16 27 87 57 134 57 22 0 59 -9
82 -19z m2178 -15 c25 -15 57 -44 70 -65 27 -40 55 -150 55 -218 l0 -43 -161
0 -161 0 4 -60 c5 -71 26 -100 73 -100 36 0 62 23 74 66 8 29 8 29 85 28 42
-1 79 -4 82 -7 12 -11 -29 -110 -60 -144 -45 -53 -97 -73 -186 -73 -119 0
-185 42 -231 144 -41 95 -36 284 12 377 24 47 91 105 137 118 62 17 155 7 207
-23z m578 -2 c37 -27 90 -107 84 -128 -3 -7 -109 -45 -129 -46 -5 0 -8 7 -8
15 0 47 -91 85 -120 50 -25 -30 -3 -65 58 -91 31 -14 79 -35 105 -47 83 -36
126 -113 111 -195 -21 -114 -102 -172 -241 -172 -91 0 -145 20 -186 69 -24 29
-54 107 -44 117 5 5 105 24 128 24 12 0 21 -10 25 -25 19 -75 144 -89 144 -16
0 36 -21 53 -95 80 -33 12 -79 33 -102 47 -78 45 -106 155 -60 244 39 78 112
113 220 106 56 -3 77 -9 110 -32z m523 21 c60 -18 109 -61 134 -117 19 -43 40
-148 40 -200 l0 -28 -166 0 -166 0 7 -52 c8 -68 32 -102 74 -106 41 -4 68 19
77 66 l7 35 80 -6 c44 -4 82 -8 84 -10 9 -10 -33 -110 -60 -143 -44 -53 -97
-74 -187 -74 -90 0 -141 20 -188 74 -57 65 -66 97 -66 241 -1 115 2 136 22
181 57 125 175 179 308 139z m1618 -19 c71 -41 80 -67 83 -236 2 -80 4 -196 6
-257 l2 -113 -81 0 c-86 0 -94 4 -94 52 0 19 -1 19 -20 -4 -29 -37 -81 -58
-145 -58 -98 0 -152 48 -162 143 -15 150 70 234 261 254 l58 6 -6 45 c-7 56
-20 72 -57 72 -30 0 -59 -31 -59 -62 0 -9 -4 -19 -9 -22 -17 -11 -163 7 -168
20 -3 7 6 38 20 68 20 42 35 60 72 81 62 37 96 45 181 41 56 -2 82 -9 118 -30z
m1345 -3 c34 -21 53 -44 76 -88 27 -53 30 -69 34 -173 7 -247 -66 -352 -249
-352 -178 0 -255 101 -253 330 2 231 85 327 277 315 54 -3 79 -10 115 -32z
m660 10 c57 -42 61 -64 61 -350 l0 -263 -90 0 -90 0 0 233 c0 168 -3 236 -12
245 -7 7 -27 12 -44 12 -60 0 -64 -16 -64 -267 l0 -223 -90 0 -90 0 0 315 0
315 85 0 85 0 0 -32 0 -32 21 23 c12 13 36 30 53 37 42 19 141 12 175 -13z
m1893 17 c21 -6 51 -22 68 -37 35 -29 74 -98 67 -117 -6 -14 -115 -48 -128
-40 -5 3 -9 11 -9 18 0 26 -47 58 -81 54 -36 -3 -46 -20 -35 -63 5 -19 24 -30
89 -55 114 -44 142 -64 167 -116 45 -93 6 -210 -85 -258 -33 -17 -58 -21 -141
-21 -93 0 -103 2 -143 28 -64 42 -106 149 -63 161 9 2 40 7 69 11 51 7 51 7
68 -28 28 -60 109 -75 136 -26 18 34 -3 64 -58 84 -141 51 -193 91 -213 166
-42 157 117 287 292 239z m1025 -13 c89 -47 129 -120 140 -259 l6 -78 -163 0
-162 0 4 -60 c5 -71 26 -100 73 -100 36 0 59 21 76 68 10 29 15 32 52 32 23 0
59 -3 80 -6 36 -7 38 -8 31 -38 -10 -45 -38 -97 -71 -128 -43 -41 -94 -58
-176 -58 -90 0 -147 26 -194 88 -41 54 -53 95 -60 202 -15 226 94 368 272 356
34 -2 75 -11 92 -19z m647 9 c18 -7 42 -25 53 -40 l21 -26 15 24 c36 54 171
72 233 31 55 -35 59 -58 62 -347 l4 -268 -91 0 -91 0 -1 198 c0 108 -4 217 -7
242 -7 43 -8 45 -45 48 -32 3 -38 0 -47 -23 -6 -15 -10 -124 -10 -246 l0 -219
-90 0 -90 0 -1 203 c0 111 -3 220 -7 242 -7 37 -10 40 -44 43 -58 5 -62 -10
-66 -265 l-4 -223 -89 0 -89 0 0 315 0 315 90 0 c90 0 90 0 90 -26 l0 -25 33
24 c50 39 114 47 171 23z m2243 -14 c23 -12 52 -36 64 -54 25 -35 23 -7 32
-420 l3 -138 -82 0 -81 0 -7 31 -6 30 -40 -32 c-34 -28 -51 -34 -104 -37 -139
-9 -210 84 -176 230 24 98 102 149 254 165 l58 6 -5 44 c-6 53 -21 73 -58 73
-32 0 -59 -31 -59 -67 0 -23 -1 -23 -82 -17 -46 4 -86 9 -90 13 -14 12 13 81
44 117 55 63 116 85 223 80 47 -2 84 -10 112 -24z m1058 14 c52 -16 101 -56
117 -96 6 -14 13 -139 17 -278 l6 -252 -87 0 -88 0 0 37 0 37 -32 -31 c-47
-44 -70 -53 -135 -53 -108 0 -163 58 -163 171 0 131 69 198 229 221 l81 12 0
39 c0 53 -15 77 -49 77 -32 0 -56 -23 -66 -63 l-7 -28 -77 7 c-42 4 -80 10
-85 15 -18 16 15 93 55 131 65 62 182 84 284 54z m-10035 -53 l0 -58 17 33
c26 53 68 82 119 82 l44 0 0 -89 0 -88 -41 0 c-51 0 -93 -38 -108 -98 -6 -24
-11 -114 -11 -199 l0 -156 -90 0 -90 0 0 315 0 315 80 0 80 0 0 -57z m435
-113 c22 -93 40 -168 42 -166 1 1 20 76 41 167 l39 164 77 3 78 3 -6 -28 c-4
-15 -42 -156 -85 -313 l-78 -285 -74 -3 -74 -3 -84 298 c-46 164 -86 306 -89
316 -4 15 5 17 85 17 l90 0 38 -170z m1555 -145 l0 -315 -90 0 -90 0 0 315 0
315 90 0 90 0 0 -315z m2433 248 c8 -38 25 -116 38 -175 12 -60 24 -107 25
-105 3 3 74 333 74 343 0 2 36 4 80 4 44 0 80 -3 80 -6 0 -25 -216 -727 -233
-759 -36 -66 -132 -101 -214 -79 -21 6 -23 12 -23 78 l0 72 51 0 c44 -1 54 3
75 27 13 15 24 36 24 45 0 9 -38 147 -85 307 -47 159 -85 295 -85 302 0 10 24
13 89 13 l89 0 15 -67z m4927 -93 c20 -85 38 -161 41 -168 2 -7 22 63 44 157
l39 171 78 0 c71 0 79 -2 74 -17 -10 -35 -166 -606 -166 -609 0 -2 -34 -4 -75
-4 l-74 0 -12 43 c-6 23 -44 160 -85 304 -41 144 -74 267 -74 273 0 7 29 10
87 8 l87 -3 36 -155z m-1590 -150 l0 -70 -130 0 -130 0 0 70 0 70 130 0 130 0
0 -70z"/>
<path d="M3866 5514 c-25 -25 -31 -61 -31 -191 0 -108 2 -125 21 -150 26 -35
54 -40 85 -14 24 19 24 22 24 176 0 153 -1 157 -24 176 -28 23 -54 24 -75 3z"/>
<path d="M4770 5605 l0 -118 61 6 c85 7 113 35 113 111 1 47 -3 60 -26 83 -22
22 -39 27 -88 31 l-60 4 0 -117z"/>
<path d="M2643 5295 c-17 -7 -36 -22 -42 -34 -17 -30 -13 -97 5 -116 43 -43
104 22 104 111 0 60 -8 65 -67 39z"/>
<path d="M5450 5498 c-11 -18 -20 -45 -20 -60 l0 -28 76 0 77 0 -6 36 c-10 58
-32 84 -72 84 -29 0 -39 -6 -55 -32z"/>
<path d="M8179 5294 c-40 -17 -59 -48 -59 -98 0 -34 25 -66 52 -66 37 0 77 78
78 153 0 32 -16 34 -71 11z"/>
<path d="M9511 5505 c-24 -32 -36 -129 -28 -238 8 -95 25 -127 67 -127 40 0
56 34 64 135 16 188 -39 311 -103 230z"/>
<path d="M13115 5506 c-9 -13 -19 -40 -22 -60 l-6 -36 78 0 78 0 -6 36 c-10
58 -32 84 -72 84 -25 0 -39 -6 -50 -24z"/>
<path d="M16004 5296 c-61 -27 -84 -99 -46 -146 14 -18 25 -21 45 -16 34 8 57
52 64 122 5 48 4 54 -13 54 -10 -1 -33 -7 -50 -14z"/>
<path d="M17090 5292 c-41 -20 -62 -70 -49 -116 27 -93 119 -31 119 80 0 62
-10 67 -70 36z"/>
</g>
</svg>
